PathFileType	4	(X/Y/Z)	C:\Users\adpatrick\OneDrive - nih.no\Desktop\WebApp1080sync\WebAppv0.1\fp22_m505_left 2_Sports2D\fp22_m505_left 2_Sports2D_px_person00.trc
DataRate	CameraRate	NumFrames	NumMarkers	Units	OrigDataRate	OrigDataStartFrame	OrigNumFrames
60	60	9	22	m	60	760	869
Frame#	Time	Hip			RHip			RKnee			RAnkle			RBigToe			RSmallToe			RHeel			LHip			LKnee			LAnkle			LBigToe			LSmallToe			LHeel			Neck			Head			Nose			RShoulder			RElbow			RWrist			LShoulder			LElbow			LWrist		
		X1	Y1	Z1	X2	Y2	Z2	X3	Y3	Z3	X4	Y4	Z4	X5	Y5	Z5	X6	Y6	Z6	X7	Y7	Z7	X8	Y8	Z8	X9	Y9	Z9	X10	Y10	Z10	X11	Y11	Z11	X12	Y12	Z12	X13	Y13	Z13	X14	Y14	Z14	X15	Y15	Z15	X16	Y16	Z16	X17	Y17	Z17	X18	Y18	Z18	X19	Y19	Z19	X20	Y20	Z20	X21	Y21	Z21	X22	Y22	Z22
760	12.666666666666666	598.1721576704778	389.43876766383147	0.0	592.8969319420086	384.17418966587945	0.0	603.4143765923559	405.2005534532893	0.0	598.1913127376428	447.30449142881685	0.0	582.3666857667334	447.44600081330236	0.0	598.2232348427716	436.847713381998	0.0	608.7300424860213	520.9340182290088	0.0	629.7490097036764	378.9096014360839	0.0	635.0125160729742	394.7118301020245	0.0	624.472714234232	447.30448117509087	0.0	650.7647196123312	442.0951976193481	0.0	656.0293361584509	436.92844882009445	0.0	629.7468910992392	436.8998406894223	0.0	587.6716870245568	268.37469031138244	0.0	571.9194539059026	236.7967640873286	0.0	577.1946842690033	278.9240773769438	0.0	571.8587970265663	289.44259007112464	0.0	582.3986037194302	310.46046595884906	0.0	571.9098903223901	321.05028406558245	0.0	640.2994553172379	278.92406743437	0.0	650.7966781341006	294.7071540133551	0.0	645.5533978341487	315.7857059885935	0.0
761	12.683333333333334	598.1719971534372	389.43951066890224	0.0	592.8975870546135	384.1749420694165	0.0	603.4173384855977	405.203610615548	0.0	598.1926849818607	447.3112254736532	0.0	582.3689249227833	447.4525833496407	0.0	598.2222275185902	436.85208600540204	0.0	608.7321366839785	520.9459635941731	0.0	629.7494920841852	378.9103806775928	0.0	635.0145464442537	394.7148809977606	0.0	624.4755679969857	447.31121235733656	0.0	650.7682839028333	442.10965423692915	0.0	656.032860661735	436.94744764393397	0.0	629.7504800629786	436.9018016582459	0.0	587.6738628866325	268.37436749495714	0.0	571.9200997500013	236.7973444271912	0.0	577.1945118175133	278.9236847791166	0.0	571.8595117720178	289.4429414815845	0.0	582.3984709241868	310.4607811855165	0.0	571.9097542203295	321.0504875656825	0.0	640.2983122609492	278.923673610292	0.0	650.7978632820804	294.70749017209874	0.0	645.5530331616766	315.785929103455	0.0
762	12.7	598.1871471592509	389.461046866359	0.0	592.9158091582416	384.19655287928725	0.0	603.4364650799718	405.2338686927987	0.0	598.1980494716938	447.33995989688054	0.0	582.3854091207633	447.4261576330657	0.0	598.2186433937968	436.85629853390594	0.0	608.7324284826307	520.99435134543	0.0	629.7671028997398	378.93207894299945	0.0	635.030172429456	394.72954558078777	0.0	624.4943435100049	447.33994071742796	0.0	650.7975068920754	442.105247442234	0.0	656.0619874837361	436.8979328208758	0.0	629.764265779163	436.8891608019807	0.0	587.6744745709594	268.39186612549946	0.0	571.9071306333085	236.8104469222772	0.0	577.1784712862848	278.9331254947797	0.0	571.870183461787	289.4551984452819	0.0	582.4059788000062	310.4884836880672	0.0	571.9016751815885	321.0543845041404	0.0	640.3097860250749	278.9331186142456	0.0	650.8181168162675	294.7196874705849	0.0	645.5674207039829	315.7899102796506	0.0
763	12.716666666666667	598.2233796186752	389.5082688288486	0.0	592.9552187236736	384.243857954959	0.0	603.4664517903913	405.2901296461497	0.0	598.2034611766024	447.37396864618347	0.0	582.4127017261295	447.3306387412825	0.0	598.2148212868086	436.84424559590184	0.0	608.7222336479896	521.0486689618998	0.0	629.8058762724335	378.9794738398256	0.0	635.0565349781654	394.7489763518992	0.0	624.5239735398783	447.3739440873793	0.0	650.8483010357226	442.0221485991548	0.0	656.1126809933862	436.68535617384373	0.0	629.7783771859902	436.84933557221075	0.0	587.6646137691755	268.43489813060086	0.0	571.8728779157416	236.838572736166	0.0	577.1410454509382	278.95746058334663	0.0	571.8914415301579	289.48245100683914	0.0	582.4239704506888	310.55243870690987	0.0	571.8828430951293	321.0626599667504	0.0	640.342215448497	278.95746856225446	0.0	650.8596195565631	294.7469035809748	0.0	645.6028625830966	315.79827521719085	0.0
764	12.733333333333333	598.2888246606807	389.5900497064118	0.0	593.0230295460776	384.32571033065045	0.0	603.5078928250056	405.3786797178067	0.0	598.2072654181572	447.40727813477565	0.0	582.4521984069057	447.13204990517596	0.0	598.211783486851	436.8045544118826	0.0	608.6950617152108	521.0971336855707	0.0	629.8732093694413	379.06139375247136	0.0	635.0952713473702	394.7714074839994	0.0	624.5651579510164	447.4072560870052	0.0	650.9246191216192	441.8134708191738	0.0	656.1889113011825	436.225504131222	0.0	629.7886440718859	436.76964313715	0.0	587.6377101959554	268.51352741975194	0.0	571.8084665563605	236.88674800499325	0.0	577.074274800915	279.0028023269065	0.0	571.9264148071875	289.5299763759916	0.0	582.456522154356	310.6660293364913	0.0	571.8492749891433	321.07674281112503	0.0	640.4048306315358	279.0028410743112	0.0	650.9289861923324	294.7944448215849	0.0	645.6677158703194	315.8124267876386	0.0
765	12.75	598.386863571886	389.7101325098423	0.0	593.1224621809218	384.445856614356	0.0	603.5619402044839	405.50281267900516	0.0	598.2092893520511	447.43919607896316	0.0	582.5051906222346	446.81836476459705	0.0	598.2098196891877	436.7337133767903	0.0	608.6489863352688	521.1381518666692	0.0	629.972371870428	379.1815805736767	0.0	635.1477213148902	394.79688364404296	0.0	624.6190763136245	447.4391952747157	0.0	651.0291474361474	441.46405920663614	0.0	656.293363646232	435.4894147667416	0.0	629.7944760665416	436.6454425251718	0.0	587.5918500629857	268.63169312251523	0.0	571.7106386862469	236.957120235546	0.0	576.9750600033427	279.07148339792616	0.0	571.9767064496791	289.59996719593397	0.0	582.5054108256066	310.83469700018946	0.0	571.7994875637328	321.09722017168696	0.0	640.5012196170028	279.0715713506986	0.0	651.029362387616	294.86449828705867	0.0	645.7654049634717	315.83294605043153	0.0
766	12.766666666666666	598.504288465126	389.8523768250882	0.0	593.2405005471861	384.5881707753281	0.0	603.6228934594965	405.64692231579784	0.0	598.2101862778545	447.4684979438666	0.0	582.5657859382912	446.43559183926465	0.0	598.2089972083436	436.6433818246412	0.0	608.5916073006467	521.1719120528256	0.0	630.0903424925418	379.3239119967034	0.0	635.207977326189	394.8233000055413	0.0	624.6800204310009	447.46855019430257	0.0	651.149609103687	441.02863053899773	0.0	656.4137573089781	434.5870331605739	0.0	629.7971039898906	436.4945987679881	0.0	587.534689668006	268.7729948361307	0.0	571.5934007520952	237.04027254085756	0.0	576.8572111609926	279.15385449896417	0.0	572.0360845374242	289.6829564177283	0.0	582.5642163682799	311.03542829365915	0.0	571.7405482035678	321.12130197534117	0.0	640.6179689123858	279.15400416233393	0.0	651.1479135986434	294.94755441290084	0.0	645.8826818181834	315.85704518343937	0.0
767	12.783333333333333	598.5951764245344	389.9610038012966	0.0	593.3315033556214	384.6968866681243	0.0	603.6691702872275	405.75598600737834	0.0	598.2110210802053	447.48790574278587	0.0	582.6120817058085	446.13904022974936	0.0	598.209501385772	436.5718557064488	0.0	608.547506427199	521.193134223853	0.0	630.1814685193242	379.43262656162767	0.0	635.2541551383778	394.84209477399685	0.0	624.7263884314232	447.4880532744023	0.0	651.241411634721	440.6885719260005	0.0	656.5055068965673	433.8873360231724	0.0	629.7984427607494	436.3778120662081	0.0	587.4908683320582	268.8812986478363	0.0	571.5040417323806	237.1036428989321	0.0	576.7677279468169	279.21702237583685	0.0	572.0821619717187	289.74630824959416	0.0	582.6102656016221	311.1890374175813	0.0	571.6962324805176	321.1394555026659	0.0	640.7088467534761	279.21722370893474	0.0	651.2392540834768	295.0108906254489	0.0	645.9735653295045	315.8751944556071	0.0
768	12.8	598.564229537347	389.92042804215475	0.0	593.300411111447	384.6564164852729	0.0	603.6544597521022	405.7150009555262	0.0	598.2130181394435	447.47956202538893	0.0	582.5974096372448	446.2471315755944	0.0	598.2117643022327	436.5966218247716	0.0	608.5661994855452	521.1855813067918	0.0	630.1506857587252	379.3921386504187	0.0	635.239696615481	394.83434528345936	0.0	624.7118413060545	447.4798445412922	0.0	651.2103340595781	440.81273974204765	0.0	656.4744208444056	434.14494236416044	0.0	629.8004590636564	436.4198685567386	0.0	587.5099166997477	268.8407665774963	0.0	571.5396396703952	237.07973045042016	0.0	576.803439390891	279.1932231005104	0.0	572.0678984477969	289.72245972185203	0.0	582.5962604364912	311.1317471337494	0.0	571.7153223668984	321.13199883509384	0.0	640.6782895223428	279.1934180065329	0.0	651.2085409225517	294.98680875994694	0.0	645.9427126036403	315.867712354338	0.0
